<?xml version="1.0" encoding="UTF-8" standalone="no"?>
<!-- Created with Inkscape (http://www.inkscape.org/) -->

<svg
   xmlns:svg="http://www.w3.org/2000/svg"
   xmlns="http://www.w3.org/2000/svg"
   version="1.1"
   width="500"
   height="500"
   id="svg2"
   xml:space="preserve"><defs
     id="defs6"><clipPath
       id="clipPath20"><path
         d="m 0,0 755.999,0 0,151.998 L 0,151.998 0,0 z"
         id="path22" /></clipPath></defs><path
     d="m 427.10317,284.90489 -0.0113,-251.25476 c -201.84574,-19.4628 -354.193708,0 -354.193708,0 0,0 -0.003,251.237 0,251.29621 16.084181,170.31868 175.605608,190.32623 177.118468,190.0509 28.49253,-5.13659 162.2333,-32.03043 177.08649,-190.09235 z"
     id="path24"
     style="fill:#880a22;fill-opacity:1;fill-rule:nonzero;stroke:none" /><path
     d="m 129.76721,347.62162 c 3.22702,2.1849 7.02247,3.15005 10.5041,4.63626 4.31355,11.27681 0.10362,22.36119 -2.31517,17.76343 -4.24842,-8.06459 -5.91818,-14.75253 -8.18893,-22.39969 z m 0.20131,-123.5002 -0.26645,-0.26054 c -0.31381,0 -22.41743,13.94725 -36.782119,7.25044 10.699499,-5.91819 47.759919,-29.46657 57.896909,-36.14562 4.78428,1.03029 6.71753,-0.69276 8.24518,-1.76153 -3.87242,0.24277 -16.71241,2.24707 -10.22285,-9.24291 2.49577,10.29983 20.50194,0.82304 26.96488,-0.66614 18.01211,-4.14478 17.88184,15.10781 16.3453,23.06582 -0.57435,2.96649 5.51851,5.07146 8.52052,4.64514 -5.16323,12.71861 -13.97685,0.72831 -15.02785,5.58067 -0.42632,1.96583 -6.32673,3.50828 -6.3001,8.39619 0.0355,6.67609 2.6438,3.0257 2.8836,8.20374 0.26645,5.0152 -2.13752,1.11021 -1.59278,6.53397 0.86152,8.61232 15.10778,-1.14277 20.9934,1.18424 2.94576,1.1635 4.89678,3.79841 7.76853,3.28031 0.83784,-0.68685 0.45889,-3.94348 0.32863,-5.10402 -0.30199,-2.73558 -5.35864,-3.05531 -7.71229,-6.78859 -2.05167,-3.25662 2.32405,-13.05612 4.69546,-15.9338 3.39874,16.1736 18.55685,11.1051 20.81873,28.11063 1.427,4.80797 -5.2106,10.15476 0.17171,17.9825 -3.99676,3.88131 -8.80177,22.28718 -0.43224,30.93796 -1.42107,3.91981 -3.28623,12.95251 4.16257,18.2312 -2.50169,5.33495 -1.9303,11.85709 0.18058,18.49766 -4.6392,0.0147 -3.71551,-26.01751 -31.5123,-26.84646 -0.62171,-0.19244 -0.76975,2.95167 0.0296,4.36092 3.33064,5.85008 7.80109,5.51257 6.84187,19.28219 -0.32566,4.70732 -3.08787,-0.82302 -4.56223,-2.12568 -3.36618,-2.97242 -5.96852,-3.36914 -7.434,-13.05613 -11.29458,8.85508 -10.18437,19.5753 -9.47974,25.02275 0.009,0.0125 -2.49281,-6.7945 -5.34384,-13.77554 -0.15099,-0.37007 11.47221,-14.34989 13.3196,-17.67461 23.45068,-42.21478 -15.1433,13.64528 -15.22324,13.4558 -2.07832,-4.81389 -3.89315,-8.96165 -5.11587,-10.27023 0.29902,-0.58322 6.73826,-7.76557 9.65146,-13.82586 18.13941,-37.77096 -10.77944,12.57651 -11.81267,11.65281 -2.18787,-1.96878 -3.99382,-4.43197 -5.3764,-3.54676 -0.32565,5.79975 -1.7112,5.0152 -1.31153,10.93635 -3.02274,4.03525 -9.50935,10.37679 -14.04494,13.51797 0,0 -1.13093,-10.48339 -0.826,-10.85345 2.27668,-2.77407 11.19688,-12.33671 13.02058,-15.19662 29.72116,-46.68229 -13.91468,11.2472 -13.9946,10.74984 -0.3079,-1.8474 -2.70005,-4.89384 -5.24614,-7.49321 0,0 9.63666,-13.1331 12.00808,-18.01508 18.08612,-37.18476 -14.5364,16.47854 -14.89759,16.2861 -0.78159,-0.41151 -0.86153,-0.40264 -1.77339,-0.71052 -0.90592,-0.30792 1.00068,-10.71137 2.25891,-16.97297 2.4484,-12.38998 -4.11815,-2.40398 -5.90632,17.22757 -1.67569,0.26052 -5.74648,0.68685 -7.28893,2.0872 0.99772,5.23725 2.23523,1.20791 4.43198,6.24383 2.62897,6.03069 -3.66224,15.91604 1.81186,23.15761 2.11681,2.79477 2.23819,2.32403 1.82371,4.15663 -3.36912,-0.24276 -5.41488,-0.3079 -7.54057,2.60234 -4.13888,-18.80555 -4.01157,-27.86193 -3.0405,-46.97243 0.43224,-8.68926 3.28326,-21.8342 1.98061,-22.08288 -1.23751,-0.23684 -20.93122,50.48365 -25.6859,60.42229 -8.304397,-2.80365 5.17212,-46.69709 22.29309,-67.82668 1.61647,-6.7205 -8.97645,6.81524 -15.30318,12.20642 -5.7968,4.94417 -13.139012,11.39229 -21.138472,9.18074 10.273178,-10.8653 33.824512,-31.18666 36.441652,-36.26699 2.19379,-4.35501 -16.06701,13.55053 -35.361043,6.89517 12.484723,-6.69089 41.616733,-21.56184 41.667063,-31.92975 z m 34.73637,95.39846 c 0.077,4.62441 -0.25165,8.04684 1.09245,12.74823 2.18785,7.09352 1.09244,4.90566 -1.88588,2.46912 -2.36847,-2.63491 -4.58297,-4.80205 -5.71983,-7.87512 -0.28125,-2.1849 1.47438,-2.30629 6.51326,-7.34223 z m 46.63489,-114.29579 c -2.8155,-4.79909 3.35433,-9.37909 3.35433,-9.37909 -0.18652,13.49724 17.0677,4.23362 26.07375,8.52052 2.16713,0.99771 3.6859,2.90136 4.57703,4.90271 -9.68402,-6.69089 -27.58955,6.91294 -34.00511,-4.04414 z M 109.85732,97.40897 c -15.397922,0 -15.075218,-23.09245 0,-23.09245 15.1522,0 15.1522,23.09245 0,23.09245 z m 0,46.11385 c -15.750229,0 -15.750229,-23.07763 0,-23.07763 15.1522,0 15.24694,23.07763 0,23.07763 z m 15.80059,-63.02167 13.42322,0 0,13.20416 -13.42322,0 0,-13.20416 z m 0,46.00136 13.42322,0 0,13.20414 -13.42322,0 0,-13.20414 z m 121.88073,35.95316 c 0,0 -14.0479,-7.62051 -30.54125,-8.71887 -15.94561,-1.05989 -48.16253,11.67945 -72.8981,9.99784 l 0,-108.69734 c 0,0 28.20535,3.75103 39.79303,-0.71942 39.3963,-15.19366 63.64632,1.78227 63.64632,1.78227 l 0,106.35552 z m 27.21652,17.64205 c 0.68982,4.1063 -3.11748,5.13363 -3.10563,5.13363 5.91225,1.37963 8.7396,-2.14049 9.89719,-4.36389 2.27371,9.45016 -7.25044,9.98306 -10.21989,10.54852 -0.006,-0.002 4.82571,1.38556 5.07441,4.53264 0.6306,7.98762 5.77015,7.30965 6.8774,6.67905 -0.18058,0.96218 -1.77042,5.78496 -7.54353,1.43291 -0.97995,0.96811 1.57502,2.45727 2.07832,6.42444 0.65133,5.01521 0.49146,9.66331 6.28234,12.72157 -3.54974,2.82143 -7.73006,-4.52671 -8.09421,-3.65037 -0.41448,0.98586 4.93231,3.68295 -0.95034,17.55322 -2.68524,-1.54542 -1.18719,-1.24936 -4.29875,-4.94711 -2.3803,-1.99248 -3.31879,-2.44544 -1.32929,0.8408 3.46978,4.33724 4.28986,14.24922 3.09084,16.92557 -2.85991,-1.2464 -2.12274,-3.53196 -5.49779,-6.64056 -0.31086,1.32634 1.03324,7.89585 4.52079,11.04294 6.02476,5.43856 8.15934,12.00807 8.26887,13.30185 0.47962,4.94119 -1.07468,11.45147 -1.66087,17.82262 -2.89249,-0.41743 -5.34679,-8.62117 -6.04845,-8.15932 -0.85265,0.55362 0.36415,8.03202 5.8116,13.12124 2.63786,7.7123 1.58095,11.85117 0.87634,12.12947 -0.92963,0.39968 -3.86652,-7.884 -5.46523,-6.4422 7.75966,19.73515 2.32998,26.60959 0.2783,32.69062 -1.60166,-6.23202 -2.41582,-10.8949 -4.42309,-17.95587 -4.2277,3.3188 -5.24317,8.23927 -10.41233,12.74525 0,-8.04978 -4.65402,-27.48592 -8.34288,-32.01265 -0.16875,-0.20724 -6.6672,17.42298 -9.62481,25.25959 -3.84283,10.16365 -4.4379,22.86746 0,32.7676 -9.57745,-13.6275 -10.60773,-38.98479 -2.34181,-42.40721 0.71645,-1.81187 -0.49738,-7.77742 -2.33885,-7.04024 -0.52994,2.91912 -0.17468,5.41489 -2.59347,8.26592 -6.3445,-1.85925 -3.45498,-9.60113 -2.88063,-12.16795 8.22742,-9.86462 3.08196,-12.14723 2.70005,-11.8867 -0.89114,2.25892 -1.66978,5.03002 -4.18033,6.05437 -5.2787,-9.07119 -1.89477,-23.3056 8.12971,-33.94294 0.4204,-3.97309 -4.48822,2.96057 -7.68267,2.7178 -0.83193,-7.65604 1.94214,-20.93715 16.09662,-21.41973 -2.703,-0.79047 -4.14776,-1.28192 -4.80205,-3.53788 4.27803,-0.63652 17.69829,-1.66088 15.48378,-12.25084 -1.27304,1.276 -1.67864,3.1767 -5.17804,5.30535 -2.35069,1.43291 -4.91157,1.55725 -6.24384,-0.51515 6.22608,-2.06056 4.16849,-9.6337 -3.95827,-7.40735 -2.48984,0.68094 -6.13134,-1.91845 -6.31194,-4.805 1.80891,1.80891 5.47705,0.47074 7.59681,-0.90594 9.14522,-5.94482 14.72885,2.66451 15.96044,4.51191 0.37008,0 4.10335,-8.60046 -8.8817,-10.91562 -1.08357,-3.02275 -4.05302,-8.36954 -12.86664,-7.69453 -2.90432,-10.2495 -11.6913,-5.1958 -11.40116,-0.55658 -9.33764,-6.87444 0.16283,-15.55188 3.93164,-16.89006 2.61419,0.21611 2.03687,8.49683 6.62871,7.10241 1.11023,-0.33158 -3.57044,-5.70206 -1.77634,-8.13862 4.20993,-2.40398 4.1152,3.08196 6.19055,1.03621 1.03028,-3.59119 5.16028,-5.6014 8.56493,-5.98627 9.54489,-1.35595 16.96407,9.10671 26.11519,3.97308 z m 85.87134,-15.97525 c -20.72695,1.4122 -63.72332,-10.38567 -74.65669,-10.38567 -22.55363,0 -33.46333,8.80474 -33.46333,8.80474 0,0 0.0326,-102.38246 0,-106.06837 0,0 29.63826,-13.89692 51.2001,-5.9389 26.40533,9.74619 56.91992,5.42968 56.91992,5.42968 l 0,108.15852 z m 27.28757,-41.8299 c 11.42484,-1.6668 13.14493,11.81268 13.14493,11.81268 l -0.0208,0 c -2.81255,-2.23523 -8.46428,-3.24774 -12.29525,-0.77863 -12.76303,8.21559 -24.26188,8.31033 -24.26188,8.31033 l 0,-20.59078 c 0,0 2.42471,4.31357 23.43291,1.2464 z M 401.435,94.10497 c -0.0857,-0.60987 -0.21317,-1.54541 -0.39672,-2.86582 -0.29013,-2.06057 -6.19647,-3.25072 -10.37383,-1.42699 -5.84122,2.552 -20.47532,10.90674 -25.81618,9.32875 l 0,-20.58781 c 13.17158,5.7139 18.31705,0.55362 22.55363,0.55362 13.00577,0 13.6571,12.13243 13.6571,12.13243 0.17172,1.32041 0.29606,2.25595 0.376,2.86582 z m -14.71699,213.395 c -3.84874,1.00363 -13.99759,5.05665 -16.44598,9.04159 1.29969,-21.94376 -5.78791,-43.49672 -8.04682,-48.70436 -4.39645,-10.137 1.96877,23.59872 2.40397,31.37317 0.009,0.34343 -36.41796,-46.81552 -14.42388,-10.49523 5.6991,9.41463 14.60448,15.5578 14.60745,15.71768 0.15098,6.54877 -0.28718,11.36859 -1.53358,14.87982 -2.24115,1.79115 -49.6014,-63.02464 -23.42107,-18.13645 3.24478,5.56588 22.23685,22.40855 22.07993,22.75199 -1.202,2.55794 -3.33656,6.28234 -6.27937,9.02678 -0.50034,-0.49738 -10.92746,-8.18598 -10.99851,-8.65375 -0.79048,-5.01225 -0.81713,-9.74324 -7.00768,-6.19648 0,0 -23.33521,-27.16324 -12.52913,-8.12676 4.72212,8.32216 7.82183,9.24586 9.08007,10.72615 0,0 -3.61781,4.90862 -4.78428,10.11924 -0.46777,2.0872 -20.23254,-21.91121 -12.47584,-6.83598 2.48392,4.8287 11.51958,10.10148 11.42188,10.44491 -0.9237,3.1382 -1.8622,6.1787 -2.85103,8.15637 -1.24345,2.50463 -18.59535,16.33643 -18.57166,16.3246 0,-0.006 3.39281,-10.95709 10.77055,-16.3246 4.20994,-3.08195 4.22178,-2.40399 7.01359,-4.15664 -0.0593,-1.61944 -1.61646,-4.26323 -3.63854,-4.96191 -2.53129,-0.8941 -10.74391,0.59802 -10.74391,0.59802 0.76679,-4.1063 -2.82734,-12.96434 -2.77998,-22.70758 -3.09378,0.30494 -8.52051,5.08627 -9.83205,7.80111 -0.94737,16.144 -4.45861,11.30642 -7.73596,22.92073 -3.56749,-4.87012 0.24573,-11.86596 -3.25071,-16.42227 -4.81093,-6.26754 -5.53923,-10.49524 -6.24976,-18.21048 1.12501,-0.62469 6.03363,-6.04845 1.56317,-17.42889 -0.7283,-17.88183 7.26229,-24.7178 -7.02542,-37.2351 1.202,-0.38191 2.06351,-9.34652 2.06351,-9.35836 10.52779,5.6162 8.44059,-6.49845 12.54097,-8.87875 6.51327,-3.77769 5.33199,-7.69452 2.40695,-12.57355 18.62198,5.2935 -0.8408,18.02396 7.58794,18.29929 6.11358,0.18652 10.21101,-1.36186 12.86369,-5.47409 2.82734,-4.34316 -0.4885,-7.00767 7.4103,-14.05087 0.79046,-0.70462 2.88359,-5.406 -3.38098,-6.69978 -1.37073,-0.2842 0.0113,-5.64284 0.0113,-5.64284 -5.0152,4.24547 -6.59318,10.22285 -14.65481,6.4422 -4.12704,-1.93917 -6.80339,-0.0326 -8.49387,0.78455 0,0 -0.85857,-3.37208 2.55792,-4.51487 8.8225,-2.96353 11.00149,-6.48364 10.52188,-8.41098 -1.19312,-4.58296 -1.55134,0 -1.29673,-4.8287 0.1095,-1.91843 2.3418,-4.52671 4.19216,-6.75897 5.98332,-7.22084 10.21989,-4.51191 11.74754,-3.87243 3.47868,-2.69116 4.09151,-2.50169 7.32742,-3.78065 5.53922,-2.17601 17.55026,1.4418 24.25891,4.55632 3.25366,1.47437 7.1409,2.35365 10.93635,1.51877 -0.0355,1.95694 -1.40924,3.0109 -2.7711,3.40761 -2.09609,0.64838 -4.59185,0 -4.42901,1.53063 0.0947,0.89705 2.96352,1.05396 4.75763,1.5395 9.94455,2.71484 22.82008,11.62319 14.36469,9.74915 -0.99476,-0.225 6.09876,5.30239 11.45148,12.48177 l 18.96246,18.42363 c -0.87338,1.04509 -7.51986,0.0978 -28.57839,-19.63746 -2.99609,2.6734 25.6119,24.23523 37.4216,47.12045 -1.01842,0.7135 -15.73839,-4.6481 -21.04372,-10.1222 -8.1771,-8.45539 -17.57394,-29.96098 -21.43453,-26.81685 -0.46481,0.1806 15.54595,25.1086 23.45659,39.8937 3.99381,7.48431 7.28005,18.20455 7.54945,26.27801 1.27009,39.82561 -4.72803,36.76439 -4.7221,36.7703 -9.33171,-31.38798 -13.6956,-67.83853 -27.3083,-84.65456 -5.43856,-6.71458 14.54824,29.41918 15.40681,61.99435 z m -41.25259,35.8081 c -4.20992,3.6948 -6.95734,5.00632 -6.04252,3.17077 1.02436,-2.04575 1.78226,-3.77768 2.35365,-5.30533 0.1954,-0.51218 3.68887,2.13456 3.68887,2.13456 z m -2.76517,-4.94415 c 0.93258,-3.3484 0.93553,-5.65469 1.36777,-8.60638 0.19245,-1.26712 0.22205,-1.11612 0.28126,-2.18193 0.0177,-0.34935 9.12153,7.57906 9.63369,7.8988 -2.28555,2.86287 -4.23954,3.88722 -6.4185,5.91817 -1.54246,-1.32929 -4.95009,-2.70596 -4.86422,-3.02866 z m 29.56128,10.13107 c -12.64162,12.4877 -31.60111,7.96394 -46.54311,14.65188 -13.53869,4.93526 -23.34409,17.45551 -37.54299,20.62036 -4.17441,1.34706 -4.86422,3.43426 -2.20266,3.36025 1.56021,-0.0414 10.21396,8.99125 24.06055,2.028 4.62145,-2.32701 18.98318,-10.32647 21.41084,-10.78832 -7.7715,7.40143 -11.67353,14.02126 -18.62199,17.92921 -4.25434,2.38326 -21.57366,8.58566 -38.84859,5.23134 -7.65307,-1.48917 -13.54462,5.57178 -11.59656,5.40896 4.09742,-1.09541 8.69224,-0.53883 11.45445,3.07899 5.0152,3.92867 12.27749,8.82546 18.52724,1.52765 2.07832,-2.41878 11.99623,-7.56722 21.31611,1.88885 -9.91495,-0.5181 -8.93205,17.31638 -27.71686,15.22326 -6.95438,-0.0503 -22.31973,-15.95453 -26.69547,-11.03998 -7.76556,8.72777 16.68578,17.00552 6.09583,27.98037 -9.55969,9.90903 -20.98453,-7.89585 -20.98453,-7.89585 5.96555,2.50464 16.97592,4.11519 12.12947,-5.58068 -1.92438,-3.8517 -5.58364,-7.31557 -5.58364,-14.43871 -0.83785,-3.54676 -22.72238,28.17873 -37.19956,13.8466 -5.68727,-5.631 -17.20684,-17.98251 -27.64284,-22.68685 27.63691,-2.3507 31.84684,8.71295 33.16726,10.48634 8.8373,11.92517 17.0055,-0.18355 18.88546,-2.30925 2.88065,-3.27735 6.95439,-7.7863 5.50963,-8.47019 -10.71726,-5.0833 -22.96514,-6.16095 -32.11034,-1.96286 19.58121,-26.92048 34.81926,-1.71122 34.8163,-1.71713 2.14643,1.33521 -0.5477,-15.96341 -19.91575,-16.91966 -12.0969,-0.59509 -22.7431,10.29094 -31.08599,10.2791 -6.78266,-0.009 -27.34678,-13.89989 -32.18436,-26.23363 11.96664,8.95278 27.22838,14.08937 36.74068,8.4169 17.88481,-10.66101 40.40882,5.41489 41.48055,3.49644 -4.99745,-3.91387 -16.37788,-19.16377 -47.0849,-10.47154 -11.91334,6.84188 -16.93743,-5.07441 -24.25299,-5.27573 12.44622,-11.04293 21.07332,-5.42673 25.42241,-5.08923 1.03324,0 -5.19284,-5.11881 -9.55376,-5.57771 -33.93701,-3.53196 -55.43075,-12.86073 -55.43075,-12.86073 -0.17764,0 2.82735,-6.84186 17.41111,-1.90956 0,0 -13.0798,-8.00835 -12.97025,-18.29929 0.42631,-6.3445 3.49346,-13.13901 -1.35891,-18.42659 19.69667,-0.80527 5.70502,26.65994 19.53385,33.73867 0.29605,0.1125 -4.07079,-6.56359 2.08424,-11.73866 2.85695,8.06458 9.8883,12.23603 14.83245,13.54165 1.16055,-0.63653 2.59642,-3.11157 2.59642,-3.10564 -5.20469,-8.60343 -5.88857,-18.63089 -4.48822,-30.11789 l 0.20723,-0.1125 c 1.11909,0.0534 3.01387,3.94645 4.34315,6.80933 2.87177,6.1787 2.80367,15.06635 8.52645,22.39078 3.17077,4.03527 5.13363,8.0646 7.97578,10.02154 1.22864,-2.86287 0.31974,-7.77741 0.13026,-9.08599 -0.6454,-4.6629 -3.57045,-12.83407 4.40534,-20.05195 3.72735,10.7676 8.80176,7.6442 9.48862,12.81039 0.95034,7.22973 0.63652,6.07805 -0.10062,11.63209 0.376,7.65307 7.33334,9.80836 13.50612,14.69924 13.9206,7.5761 23.16054,11.67648 29.22083,21.37827 2.95761,-16.37195 -41.2289,-19.64635 -35.5298,-51.23267 -0.59211,-12.61501 1.5691,-13.67488 -7.37181,-21.37533 17.73085,0.51514 27.39118,29.61755 28.35337,34.92881 1.77338,9.761 7.70045,10.27023 15.83905,22.99772 1.16943,0.42632 -14.5512,-33.91038 4.1892,-63.30588 0,0 6.31786,15.27061 3.33953,25.28624 -1.79707,6.03067 -0.13027,12.7038 0.20428,16.48445 0.34343,3.85466 -0.76975,-13.93245 12.61794,-23.13686 0.83194,6.73235 7.28301,17.15947 1.16944,28.3297 -7.43695,13.59198 -7.97874,8.70705 -8.09125,25.42538 0.67501,-0.28717 2.59939,-11.52253 7.70045,-17.90552 10.7824,-13.47356 3.08196,-20.72696 13.60677,-32.40641 0.83489,5.8412 2.32405,3.529 2.95169,8.72776 1.4122,11.67945 -10.77944,24.45136 -8.08531,24.06351 3.10564,-0.43816 8.08531,-3.14116 9.75509,-11.99622 0,0 4.49117,8.08531 0.38486,10.77943 -7.4399,4.88494 -8.98533,10.137 -7.8307,16.04334 5.96851,-7.12314 14.11896,-15.01602 12.70676,-25.15894 0.67501,-6.12542 7.31261,-8.60341 8.63006,-22.82896 0.22205,-2.35959 2.57865,-5.22245 4.9323,-6.47477 -1.02731,7.98762 5.18102,16.25355 -1.87698,26.0323 1.60758,0.85857 7.57906,-7.63234 16.30386,-4.53559 -17.51474,3.15597 -12.4048,22.13026 -25.8221,30.91427 -4.04414,2.64675 -3.35433,5.61917 -4.5652,5.95372 11.98142,-0.67798 21.21544,-14.94792 22.81711,-16.03445 12.0436,-8.14454 14.67851,-9.38798 19.4924,-22.59212 1.88588,-5.02113 0.51514,-7.2386 7.19122,-14.00943 2.92505,6.67906 -1.32633,20.51676 -2.33884,23.50101 -2.1553,6.37115 -9.72844,11.8867 -8.12381,11.8867 32.28205,-14.24628 31.87646,-23.81484 39.59762,-34.01696 2.31814,-3.89612 13.80219,-10.66102 18.09796,-11.29162 -1.051,2.12569 -5.51553,5.70502 -5.72278,9.56857 -0.39079,7.13498 -2.69412,11.48998 -6.30009,17.2098 2.00727,2.48983 5.85897,-4.69547 9.79949,-1.08949 -5.21357,1.72897 -7.53464,7.53465 -11.58472,10.94819 z m 5.39417,-1.8918 c -1.91549,9.40574 -5.16324,18.12165 -10.82385,26.21882 -3.96124,5.74646 -5.57179,-5.42082 -2.15825,-16.22985 4.84645,-1.9303 9.68995,-5.68725 12.9821,-9.98897 z M 353.07118,107.98413 c -0.75197,-0.28125 -2.31812,-0.57138 -3.31287,-0.57138 -0.99179,0 -1.52174,1.40922 -0.29014,1.73785 0.78751,0.21908 2.25004,0.47666 3.65631,0.54178 0.95625,0.0889 0.64836,-1.41218 -0.0533,-1.70825 z m -3.6711,4.51488 c 0.77271,0.23092 2.18785,0.44112 3.63558,0.54474 0.9089,0.1155 0.61283,-1.40923 -0.0889,-1.6964 -0.70757,-0.25462 -2.27372,-0.55659 -3.24182,-0.57437 -1.04509,0 -1.53654,1.35299 -0.30494,1.72603 z m 0,20.56709 c -0.7135,-0.83784 -2.63787,-2.4336 -4.36092,-3.65335 -0.99179,0.81711 -3.0257,2.29444 -4.32835,2.97241 -0.96515,-1.09245 -2.24412,-2.59939 -4.20402,-4.12111 -1.17831,0.80527 -4.57703,3.90795 -6.00996,4.72507 2.06649,0.0534 5.1514,0.73718 5.26686,2.65859 0.0681,1.56021 -0.1155,11.28865 0,13.06796 1.26417,0.2694 2.75925,0.1421 4.60369,0.0385 0.0859,-1.37666 0.0563,-12.59426 0.0859,-13.95612 0.61876,-0.34344 1.34706,-0.68981 1.70528,-1.0066 0.7135,0.52994 2.88064,3.01979 4.13592,3.68887 0.85561,-0.65428 3.10565,-2.62603 4.09447,-3.55565 1.04508,-1.0362 -0.0829,-1.6964 -0.98882,-0.85856 z m -5.67541,-16.34532 c 1.1783,-2.13457 2.91911,-5.58956 2.80366,-8.21558 -0.15396,-3.23294 -2.13754,-8.02907 -6.88037,-9.60707 -6.00995,2.13754 -9.72547,6.88038 -9.8883,12.49065 -0.1125,3.28033 2.67931,10.04227 8.4465,10.08076 1.77338,-1.70825 3.65038,-3.51717 5.51851,-4.74876 z m -3.64743,1.27304 c -1.11317,-0.54177 -5.17507,-3.67406 -6.1047,-6.07212 -1.21678,-3.23295 -1.21678,-6.80637 2.22339,-8.90244 2.68524,0.98882 5.81753,3.62965 6.09878,6.05732 0.38191,3.14709 -0.52402,6.87742 -2.21747,8.91724 z m -0.151,-24.99905 4.31948,-4.72211 c 0,0 -1.9214,-1.50694 -3.05826,-2.90433 0,-0.98882 0,-10.44785 0.41743,-10.95707 -3.2507,-2.89839 -5.62211,-3.26255 -7.02246,-3.079 -2.63195,0.39672 -5.32311,3.76881 -6.17871,4.89975 -0.62469,0.8941 -0.46185,2.01615 0,2.43359 0.52401,0.42928 1.20199,0.86152 1.91844,1.29081 -0.11838,-0.074 -0.23092,-0.14506 -0.35527,-0.19836 -1.23455,1.16055 -3.0257,4.49711 -2.96649,6.75898 0.0236,2.27373 2.07241,5.57475 3.44611,6.80932 1.5247,-1.1783 3.77768,-3.15005 7.08761,-3.79249 0.36415,1.59279 1.12501,2.55792 2.39212,3.46091 z m -2.60233,-10.89786 c -2.12865,-0.76088 -6.32377,-2.73261 -7.8455,-3.99085 -0.4056,-0.31975 -0.44409,-0.5033 0.0503,-1.29378 0.9681,-1.43883 2.06943,-2.70003 2.84213,-2.64082 0.66023,0 4.92937,2.2826 4.79022,3.48459 0.15098,0.84968 0.17467,2.64378 0.16282,4.44086 z m 0.0296,6.4037 c -1.10725,0.0592 -2.07535,0.35527 -3.49346,1.03325 -1.16055,-0.94739 -4.18034,-4.5948 -1.95399,-8.67151 -0.3079,-0.18357 -0.62764,-0.34639 -0.92369,-0.5329 2.04872,1.1487 4.4438,2.15528 6.32969,2.75925 -0.0177,1.62238 -0.0651,3.08491 -0.0651,3.61781 -0.006,0.68981 0.0474,1.24936 0.10662,1.7941 z M 324.93392,69.07038 c -1.0214,0 -7.85144,0.14508 -8.0261,-0.24276 -0.49739,-1.46252 -0.62469,-3.24182 0.5477,-5.71685 0.58619,-1.23456 -0.5477,-1.7497 -0.98884,-0.50922 -0.42927,1.21087 -3.84873,5.9389 -7.40141,7.46063 -1.82669,0.71943 2.22634,2.40103 1.94805,2.32405 -0.0207,4.55039 0.63356,11.37748 1.60463,14.11008 0.601,1.62831 2.44838,4.27506 3.72143,3.46684 0.826,-0.51812 2.60827,-4.05895 3.17373,-4.50897 0.98587,-0.80231 0.0236,-2.16713 -0.80231,-1.34705 -0.91482,0.79935 -1.69049,-0.44705 -1.94213,-1.27896 -0.30199,-0.80824 -1.13686,-10.81794 -0.7135,-11.01037 0,0 8.07644,-0.97995 8.87875,-0.97995 0.55066,0 0.58028,-1.76747 0,-1.76747 z m -22.18355,18.4562 3.33656,-4.33723 c -2.42175,-0.41744 -3.42242,-0.86448 -5.10995,-2.78885 l 0.0651,-10.76168 -3.40761,-3.40761 -1.16647,0.1273 -5.3468,4.69546 c -0.55065,0.81713 0.88523,0.81713 1.59872,-0.15691 l 3.88131,2.22339 0.17171,10.41528 c 0.29605,1.24345 1.32634,2.45137 2.86583,3.99085 l 3.11156,0 z m -2.88952,-23.8918 1.87405,-1.6283 0,-2.61418 -2.52833,-2.45432 -2.51057,2.13753 0.0593,3.01386 1.55428,1.54541 1.55134,0 z m -8.56493,-3.32176 c -1.43291,-0.17171 -6.17575,0.22798 -7.884,0.49738 -1.71416,0.26053 -1.71416,1.09246 -0.28717,1.26713 1.41811,0.14507 1.69048,0.44408 2.43951,2.35662 0.68685,1.9214 -2.73556,10.64325 -3.58821,12.69492 -0.99772,-1.4951 -4.62737,-9.47382 -4.62737,-10.55445 0,-0.77566 1.60167,-1.55429 2.28852,-1.73784 1.34113,-0.41447 1.31153,-1.33522 0.29902,-1.53357 -2.83622,-0.40264 -12.83111,-1.28194 -14.59561,-1.50101 -1.27601,-0.1095 -1.85629,1.36778 -0.31086,1.36778 1.60462,0.0444 3.26847,-0.43225 5.01521,2.12864 2.0191,2.90136 8.35176,16.51408 9.86165,22.23685 0.74606,-1.20199 7.06689,-19.52497 7.43104,-21.46414 0.45296,-1.89772 1.78521,-3.74807 3.64446,-4.29875 1.91251,-0.51513 1.73785,-1.33225 0.31381,-1.45956 z m -29.97874,44.29014 c 0.0829,7.62051 3.11157,8.26592 6.57839,10.26135 3.28328,1.85627 8.79586,1.48324 12.92881,0.39079 1.56614,-0.45593 2.41287,-0.55067 2.36254,0.80231 0,0.84376 1.18719,0.66317 1.18719,0.0326 0,-0.62172 0.0562,-7.01358 0.0562,-7.7182 0,-0.79936 -1.15461,-0.68093 -1.15461,0 0,1.06579 0,1.38258 -1.04805,2.90432 -2.84807,4.20697 -9.96232,4.03821 -13.77257,-1.10725 -1.30561,-1.75267 -2.4928,-4.09448 -0.97995,-4.53857 1.49805,-0.45887 6.07805,0.49145 9.10375,0.74607 1.81779,0.11837 6.00108,0.54475 6.52807,0.84672 0.4648,0.34935 1.17237,0.78751 1.17237,-0.12437 0.0415,-0.89409 0.0415,-3.83098 0.0415,-4.73988 0,-0.87929 -0.6839,-0.45592 -1.19607,-0.14506 -0.5181,0.36119 -4.97968,1.10725 -6.76787,1.42107 -1.80002,0.33455 -7.33333,0.77864 -8.7929,0.28422 -1.48916,-0.49442 -0.99473,-3.48459 0.33159,-5.1958 3.85763,-5.10403 11.64985,-4.74875 14.4683,-0.5033 0.96811,1.47732 0.96811,1.82667 0.96811,2.93688 0,0.66613 1.1191,0.74607 1.1191,0 0.0651,-0.72237 0.0917,-8.43466 0.0917,-9.05342 0,-0.601 -1.12797,-0.82008 -1.12797,0 0,0.56251 -1.24048,0.89114 -2.4632,0.56251 -2.41879,-0.76086 -9.47086,0.32863 -12.61499,2.05168 -2.78885,1.59278 -7.07872,5.26981 -7.01951,9.88535 z m 1.34707,13.5239 c 0.0859,2.16418 0.87928,20.80393 0.64243,23.39146 -0.14506,1.48028 1.83557,3.04643 3.64744,4.28099 0.87928,-1.06581 2.79476,-3.85171 4.37868,-5.02409 0.93258,-0.76383 0.28718,-1.26712 -0.4352,-0.98291 -1.42404,0.66316 -2.86288,0.14506 -3.00203,-1.50396 -0.13321,-1.65201 -0.13321,-17.68943 0,-20.00459 -1.10132,0 -4.20104,-0.0593 -5.23132,-0.1569 z m 15.37425,15.23509 c -1.23753,1.16647 -3.44612,4.19514 -3.39578,6.43036 0.0326,2.28556 1.13389,4.48526 2.45728,5.71983 2.26186,-1.58095 3.67701,-3.75104 7.43693,-5.20173 0.46483,1.75563 1.70233,2.02503 3.16782,3.12933 0.8793,-0.95627 4.07671,-4.88494 4.77836,-5.56884 0.71054,-0.67205 0.30495,-1.36483 -0.70165,-0.67205 -1.00956,0.67205 -1.69936,0.25756 -3.38394,-1.55134 0.0621,-0.97995 -0.1125,-8.99421 0.2783,-9.44126 -1.53654,-1.652 -2.94577,-3.90203 -4.7606,-3.73328 -2.63195,0.21908 -5.98627,4.81389 -6.81522,6.007 -0.66318,0.85857 0.0296,4.15072 0.52401,4.56224 0.17764,0.16283 0.26349,0.17764 0.41449,0.31974 z m 1.84147,1.33817 c 1.4714,0.82009 2.21154,0.31383 4.49414,0.0651 -0.0113,1.43885 -0.0474,2.73261 -0.0534,3.42242 -1.00658,0.71943 -2.24411,1.35003 -3.66815,2.05169 -1.12796,-0.93259 -2.78292,-1.72306 -0.7727,-5.53924 z m -1.202,-6.61095 c 0.95923,-1.46548 1.56318,-1.74968 2.32996,-1.74968 0.69278,0.0414 3.36618,1.87996 3.22703,3.11746 0.13026,0.80529 0.15987,2.48096 0.15099,4.19217 -2.00134,0.24277 -3.41057,0.47074 -5.65468,-1.42106 -0.41449,-0.33455 -0.52995,-3.37506 -0.0532,-4.13889 z m 16.13806,-2.95761 c -1.70527,0.84969 2.27669,2.42766 2.01024,2.35663 -0.0532,4.5119 -0.96515,11.88965 0.58619,14.23146 0.95331,1.43291 3.13821,2.37141 4.59777,1.8089 1.40034,-0.55955 3.19149,-3.36024 3.72143,-3.81914 1.04212,-0.77862 0.15395,-1.60759 -0.71645,-0.80231 -0.85561,0.80231 -3.18854,0.23092 -3.50236,-0.58028 -0.24277,-0.84672 -0.54178,-10.69357 -0.13323,-10.89193 0,0 2.81255,-0.0592 3.5586,-0.0355 0.59213,0 0.63061,-1.78819 0.0534,-1.78819 -1.02437,-0.0178 -3.28919,-0.21908 -3.42242,-0.62468 -0.33751,-0.92666 0.08,-3.92867 0.66317,-5.14547 0.59803,-1.2316 -0.54475,-1.77043 -1.00068,-0.56843 -0.46185,1.27897 -3.41354,4.38164 -6.41555,5.85897 z m 0.82009,-20.49306 c 0.16875,4.26617 -2.04872,8.74848 -4.4675,10.77351 4.17736,-1.08358 4.72211,-3.57341 7.00766,-6.50734 1.26122,1.86811 3.60894,4.12111 5.32312,5.0981 1.20495,-0.79935 4.62145,-4.63329 5.37047,-5.42376 -2.4632,-0.6602 -7.22084,-3.17669 -8.40506,-5.83233 -0.93554,-1.96878 -0.7135,-2.90136 0.21909,-4.4527 0.82895,1.09245 6.6139,3.75105 9.21625,-0.68685 -2.84512,-1.0362 -5.40602,-2.90136 -6.27049,-4.40828 -0.76383,0.63356 -3.30696,3.40465 -4.73691,4.28098 -0.33159,-1.5247 -2.67044,-3.16485 -4.5652,-3.50532 -0.6158,0.66021 -5.07739,4.06191 -7.11425,5.0537 -0.62764,0.30197 -0.3908,1.6668 0.4885,1.32041 0.83191,-0.36119 2.20858,-1.40922 3.80432,-2.16714 1.8474,0.71645 3.94053,2.59642 4.13,6.45702 z m 19.99273,0.6898 c 0.51218,-2.58458 2.327,-3.64447 3.16188,-4.42309 1.1783,1.30857 2.36254,2.7859 4.13592,2.7859 1.73193,0.0148 3.53196,-0.78751 4.09151,-1.50396 -1.42995,-1.15168 -4.68658,-4.58002 -5.34086,-5.22542 -1.64904,0.91482 -8.81067,4.63329 -9.41758,8.92908 -0.87337,6.33266 1.13389,7.59682 3.91386,11.0755 1.56319,1.9747 4.1833,2.06648 5.37048,1.76154 1.28489,-0.89114 5.97444,-5.34087 6.4955,-5.90042 0.47073,-0.54771 -0.2102,-1.04805 -0.79344,-0.4885 -0.58322,0.52995 -0.35526,0.76088 -1.13094,0.87633 -0.79638,0.12731 -3.98788,0.66317 -5.84416,-0.30494 -2.31517,-1.21679 -5.33791,-4.07966 -4.64217,-7.58202 z m -3.50235,20.22071 c -1.05693,1.07468 -2.90433,2.3122 -4.63625,4.23361 1.43291,0.10063 2.62306,0.40857 3.31287,1.78227 0.70758,1.36481 0.1095,7.11128 0.2102,9.3258 0.1125,2.14937 1.41515,2.6053 3.12044,4.38756 1.70234,-0.43224 6.44812,-2.41583 8.04979,-3.5142 -0.14507,1.7645 2.0872,3.74809 3.40466,4.13296 0.88225,-0.96219 1.84443,-1.48916 3.14413,-2.69709 -1.26713,-0.84672 -1.10134,-0.96218 -1.57799,-2.64378 -0.37008,-1.62239 0.0917,-7.76558 0.13619,-10.39753 -1.00661,-1.52174 -2.65564,-3.34544 -4.34316,-4.6096 -1.19311,1.08653 -2.80071,2.54016 -4.68362,4.52375 1.40331,-0.18949 4.16552,0.37303 4.29875,1.5543 0.08,1.52173 0.31085,4.84941 0,7.43399 -0.31679,2.6053 -7.32741,1.40924 -7.41919,-0.34343 -0.15692,-1.80595 0.35823,-6.99286 0.39375,-9.44717 -0.99179,-1.52174 -1.57799,-2.35663 -3.41057,-3.72144 z m -46.5372,63.05719 0,-0.25756 c -4.05303,-0.58324 -7.22972,-3.41652 -10.93932,-4.81982 -5.1277,-1.93917 -10.56627,2.01911 -10.56627,2.64676 0,1.38259 1.4566,2.09015 5.60436,-0.52106 -3.24775,3.76583 0.44409,6.82411 0.44409,6.82411 -1.35003,-0.20131 -3.28031,-0.65133 -4.51191,-1.36186 -0.25165,1.36186 1.62238,1.85627 2.51352,2.45136 6.88038,2.82437 11.40708,-3.79546 17.45553,-4.96193 z m -11.5936,3.49644 c 0,0 1.82667,-1.97766 1.82076,-3.39282 -0.006,-1.9214 -1.81484,-3.32177 -1.81484,-3.32177 1.55726,0.44707 5.24614,2.52538 6.5695,3.39579 l -6.57542,3.3188 z m -37.7147,-52.18598 1.9747,-2.18491 c -2.22339,-0.41151 -1.18719,-0.3908 -2.36253,-1.4714 l -0.0681,-9.04159 -2.88952,-4.23954 -1.09541,0.15397 -4.52671,4.22768 c -1.19903,1.04804 -0.1421,1.55134 1.25232,0.39375 l 2.99313,1.54839 0.074,9.57744 c 0.25165,1.18424 1.30265,1.45661 2.75925,2.95761 l 1.88885,-1.9214 z m 0.98291,-31.47088 c 1.53061,4.3402 5.12771,5.70799 7.80999,5.92115 0.79638,-1.48325 2.27963,-3.74216 3.09378,-4.79317 1.20792,-1.60166 -0.0236,-2.56385 -0.86743,-0.71941 -0.64838,1.42106 -4.13,-0.13028 -5.39417,-1.3441 -1.69345,-1.57799 -2.74741,-5.71688 -1.39738,-7.17347 1.36482,-1.46845 3.32175,-0.79638 5.84416,-0.86745 1.66384,-0.0829 2.01911,-1.61647 2.30036,-2.39806 -0.80231,-0.37895 -2.00135,-1.05989 -3.57932,-2.01022 -1.62535,1.03323 -4.13297,3.16485 -5.21654,4.0619 -1.35296,1.14277 -4.1211,5.09217 -2.59345,9.32283 z m 6.53397,23.90366 c -1.64015,1.68752 -2.85695,3.55268 -2.83622,5.90041 0.0829,2.23227 0.826,4.45566 3.09971,5.46226 2.01024,-1.48325 4.60074,-3.28327 7.09649,-3.75105 1.22272,1.46844 3.10267,2.44839 4.2277,3.33656 0.78159,-0.94442 3.27144,-2.96648 3.96124,-3.59412 0.65428,-0.66909 0,-1.60464 -0.6898,-0.72535 -0.52995,0.80824 -2.28558,0.22205 -2.7859,-0.60395 0,-0.95034 -0.91187,-10.99556 -0.50923,-11.46038 -1.44772,-1.61646 -3.94644,-5.26092 -5.62804,-5.08033 -2.44542,0.25165 -6.1047,3.74808 -6.89221,4.89086 -0.59804,0.85856 0.17764,4.99449 0.64836,5.38825 0.12732,0.0918 0.18948,0.12437 0.3079,0.23684 z m 6.43333,0.86448 c -1.8474,0.0385 -3.43426,-0.52993 -5.45041,-2.30332 -0.38192,-0.32271 -0.7431,-2.61419 -0.30494,-3.36321 0.88521,-1.40923 0.88521,-1.84739 1.65791,-1.8326 0.601,0 4.31948,2.24708 4.12408,3.44611 0.14211,0.8556 0.071,2.47209 -0.0266,4.05302 z m -4.88791,0.33455 c 1.69345,1.13982 2.66451,0.99179 4.79908,0.78158 -0.0888,1.15759 -0.16875,2.22044 -0.16875,2.69412 0,0.51218 0.21022,0.91779 0.35528,1.35003 -1.1043,0.39376 -2.51056,0.6306 -3.59414,1.17239 -0.98291,-0.86449 -4.5948,-3.3336 -1.39147,-5.99812 z m 13.92948,-18.62791 2.02208,-2.17603 c -2.2678,-0.43225 -2.2678,-0.2783 -3.47571,-1.36482 l 0.0889,-10.46858 -1.97766,-2.91912 -1.05693,0.13914 -4.55336,4.20106 c -1.22567,1.09836 -0.1273,1.61944 1.23753,0.40559 l 2.35068,1.43588 0.0857,9.8587 c 0.2398,1.18127 1.276,1.58687 2.72669,3.08195 l 2.55201,-2.19377 z m -3.55563,-36.64004 c -0.93852,-0.0562 -2.35663,1.65793 3.11451,2.22043 0.84969,0.0978 1.98951,-1.90957 -3.11451,-2.22043 z m 0.0651,-3.27142 c -0.90594,-0.0503 -2.32109,2.44247 3.1382,2.23818 0.85265,-0.0326 1.48621,-1.97468 -3.1382,-2.23818 z m 1.04804,16.44892 -2.34181,-2.42766 -2.35662,2.11977 0.0445,2.91912 1.4418,1.47732 1.46253,0 1.7497,-1.58094 0,-2.50761 z m -4.76651,-22.4056 c -1.59279,-1.08949 -3.32473,-3.73919 -7.16459,-3.91091 -3.86058,-0.15394 -8.21558,3.33361 -9.63074,5.52739 -1.87996,2.90136 0.42338,5.44745 2.87768,7.33037 -1.5691,1.3441 -3.75104,3.4165 -5.77014,5.30534 0.80822,0.8793 5.22836,2.9665 7.70931,2.90729 3.74809,-0.0829 7.21491,-2.01615 9.35245,-3.73329 3.90203,-3.08491 2.54609,-6.36226 -1.42107,-8.68039 -0.37895,-0.22796 -0.74607,-0.2931 -1.12207,-0.36711 2.4632,-1.95101 4.61258,-3.69183 5.16917,-4.37869 z m -9.85575,8.07645 c 1.30266,0.58915 2.62898,1.1783 4.07671,2.03095 2.09312,1.18423 1.01547,3.43723 -1.23751,4.47638 -2.29149,1.05397 -6.39484,-1.90957 -7.03137,-3.1234 0.83785,-0.7283 2.41879,-1.98062 4.19217,-3.38393 z m 4.13592,-5.50666 c -0.34639,0.27829 -1.3293,1.07469 -2.39214,1.92436 -0.62763,0.1095 -1.26121,0.1806 -1.91548,0.10063 -1.96287,-0.28125 -2.91025,-1.76154 -3.81618,-2.95169 -0.93259,-1.24048 1.48029,-2.27075 2.66746,-2.14641 1.20495,0.1658 3.86652,1.59278 5.45634,3.07307 z m -16.14991,8.4998 c -5.74055,1.44771 -8.42578,-3.15301 -9.00013,-4.38461 2.32108,-2.37142 6.26457,-6.25273 8.66855,-8.22447 -1.58687,-1.46548 -2.24411,-3.89018 -5.06553,-4.09742 -2.46024,0.0681 -8.19783,2.85399 -9.20442,10.14291 -0.96513,6.99583 5.6014,10.77648 10.80608,10.98668 1.7349,0 3.89907,-2.24412 4.97376,-2.77407 2.30629,-1.13093 1.45068,-2.25003 -1.17831,-1.64902 z m -9.41756,-5.76424 c -1.44773,-4.6629 -0.90299,-6.26754 1.99245,-8.57085 0.65133,1.60463 2.31221,2.76221 3.23887,3.31879 -1.63424,1.58984 -4.17441,4.47047 -5.23132,5.25206 z m -6.63465,-4.15072 c 0.97995,-0.96219 -0.0651,-1.66088 -0.93849,-0.82304 -0.64838,-0.77566 -2.30629,-2.48688 -3.19446,-3.53196 -0.94147,0.78455 -3.10268,2.08128 -4.30763,2.7563 -0.94442,-1.08062 -2.10792,-1.08062 -3.99677,-2.5609 -1.04508,0.80231 -3.36025,2.49872 -4.60665,4.00861 2.19675,0.63949 3.85467,0.76679 3.99085,2.65267 0.0829,1.53654 -0.15987,10.98373 -0.0296,12.71565 1.17535,0.25758 2.61419,0.14212 4.28099,0.0563 0.13322,-1.35297 0.0681,-13.20415 0.0681,-14.51863 0.63357,-0.35232 1.28193,-0.69573 1.59574,-0.98883 0.69278,0.52994 2.06351,2.52833 3.17078,3.18556 0.84968,-0.63058 3.02866,-2.01021 3.96716,-2.95168 z m -18.1246,24.47801 c -2.4928,0.225 -6.09583,3.14116 -7.1705,5.65172 -0.43225,1.00364 0.18355,4.62145 0.64243,5.02113 0.32568,0.28421 0.58324,0.48257 0.86745,0.70461 -1.63718,1.52174 -3.17373,2.81846 -3.12636,5.08035 0.0681,2.17898 1.80003,4.11519 4.03525,5.13363 1.19904,-1.82372 3.07013,-2.94282 5.0685,-3.41354 0.1658,1.74081 0.57139,3.01386 1.71121,3.89019 0.82008,-0.90889 4.10039,-3.74217 4.73395,-4.38462 0.69574,-0.65132 0.17468,-1.43882 -0.63356,-0.65132 -0.47961,0.44409 -1.65495,-0.21611 -1.99839,-0.7875 0,-0.95035 0,-10.97484 0.4204,-11.42781 -1.48323,-1.60759 -2.89247,-4.99744 -4.55038,-4.81684 z m 0.1954,10.17547 c -2.77998,1.80003 -3.66519,1.74082 -5.58069,-0.41743 -0.95034,-1.1043 -0.86448,-3.18262 -0.42631,-3.96717 0.86447,-1.35595 2.37733,-2.72372 3.09971,-2.70893 0.62467,0.0415 2.86584,2.76518 2.71189,3.95237 0.1155,0.65724 0.16282,1.86811 0.1954,3.14116 z m 0.0296,5.01224 c -0.0178,0.54179 0,1.00364 0.009,1.49214 -0.53882,0.13619 -1.14277,0.26349 -1.8918,0.64244 -1.0214,-0.86448 -5.85009,-2.44543 -2.68525,-4.99744 1.94214,1.14277 2.69116,0.25165 4.56816,-0.9089 0.0125,1.63424 0,3.18261 0,3.77176 z m -2.1701,-21.22432 c -0.33751,-0.43225 -0.98291,-1.12798 -1.01251,-2.00432 0,-0.57731 0.071,-6.62278 0.071,-7.37477 0,-0.7135 -1.42699,-0.63653 -1.42699,0 -0.0651,1.07469 0.0947,2.90431 -0.8645,4.38756 -2.65266,4.10039 -7.70044,5.79089 -11.25016,0.76086 -1.20791,-1.66975 -1.49509,-4.19808 -1.64608,-6.00106 -0.2398,-2.40991 1.58687,-5.52444 1.69049,-5.80865 4.51783,-5.91819 10.78239,-1.52172 11.29161,0.88226 0.33455,1.60463 0.69573,3.57044 0.69573,4.60368 -0.0415,0.68685 1.43885,0.6158 1.46845,-0.0947 0,-0.73719 0.0415,-9.83206 0.0415,-10.46858 0.0266,-0.58916 -1.19311,-0.7816 -1.21976,0 -0.0651,1.43883 -0.91482,1.56318 -2.01615,1.2079 -2.28555,-0.68092 -7.35109,-1.76745 -10.29389,-0.077 -2.5905,1.5247 -6.56063,5.09514 -6.48958,9.58634 0.08,7.38958 2.86879,8.0113 6.10765,10.0008 3.03459,1.78523 7.22972,0.6306 11.0607,-0.47665 1.51877,-0.41449 1.70528,0.54475 2.43654,1.62239 1.23753,1.65792 2.24116,0.59804 1.35594,-0.74606 z m -20.48417,10.44488 c -2.55498,3.91389 -3.95829,10.08372 0.47368,13.69265 2.0872,1.74378 3.81618,3.10268 8.07052,2.34477 0.84376,-1.68753 1.22271,-2.24707 2.7178,-4.19809 -2.93393,0.47369 -5.19877,-0.0563 -7.33925,-1.67568 -4.41125,-3.42242 -3.04643,-8.93203 -1.74378,-10.81497 2.37734,-3.53195 5.76126,1.51581 6.36523,2.20564 0.78455,-0.94148 2.14345,-2.2826 3.46978,-3.32473 -1.3145,-1.73785 -2.38918,-3.34841 -3.28032,-4.39645 -2.82141,1.01548 -6.96325,3.5438 -8.73366,6.16686 z m 1.8237,33.81269 c -0.94442,7.03432 5.68726,11.22057 8.87578,12.57355 0.80232,-1.61648 2.43064,-4.23955 4.02934,-6.07805 1.21384,-1.41516 -0.12437,-1.79115 -1.21384,-0.70166 -1.46843,1.60463 -5.85007,0.08 -7.01062,-2.03687 2.11384,-1.59575 7.63531,-6.21128 10.03634,-8.18007 -1.58392,-1.4862 -4.03823,-5.18395 -4.41718,-7.30668 -2.14049,1.4418 -9.22217,4.41717 -10.29982,11.72978 z m 6.85076,-7.62051 c 0.63949,1.62831 2.67635,4.73099 3.5971,5.27574 -1.58391,1.58982 -5.4741,4.2277 -6.56655,4.99744 -1.99246,-2.49872 -3.06715,-6.57838 2.96945,-10.27318 z m 14.50384,-2.55497 c -1.37668,1.29968 -2.46024,2.48392 -4.47047,4.07375 0.93554,1.07468 2.51944,2.42766 2.66155,4.27506 0.12138,1.86516 0.0503,10.52187 0.16579,12.68901 1.4714,0 1.21088,0.15395 3.7392,0.0563 -0.24869,-1.46845 -0.0385,-12.70381 -0.0385,-14.31436 0.95034,-0.90298 1.08356,-1.04508 2.17306,-1.85333 0.78159,0.6839 2.61123,1.0895 2.61123,2.2915 0,1.21088 0.36415,6.54285 -0.0651,8.51459 -0.52993,2.40399 -0.29308,4.13296 1.00364,6.56064 0.98586,-1.10134 4.66585,-3.67408 5.46225,-4.31653 0.78751,-0.68092 0.37895,-1.19311 -0.63949,-0.91777 -1.08948,0.23685 -1.28192,0.44705 -1.28192,-0.24276 0,-1.29377 -0.51514,-7.14682 -0.59211,-10.88307 -0.13323,-3.74512 -1.96287,-4.84941 -3.01387,-5.36455 -1.07468,1.19312 -3.46682,2.69708 -4.90271,3.91388 -1.0806,-0.7964 -1.6135,-2.58754 -2.81252,-4.48231 z m 15.07521,-9.06231 c 1.2612,-1.00956 2.19082,-2.70892 2.70892,-3.11156 0.97107,-0.79936 0.17172,-1.61944 -0.64836,-0.85265 -0.65429,0.64541 -2.37141,-0.84967 -2.4484,-0.95034 -0.55657,-0.65428 -1.3737,-9.2281 -0.99179,-9.42053 0,0 5.45338,-0.67205 6.16984,-0.66022 0.54178,0.0385 0.61283,-1.69936 0.0296,-1.72897 -0.88818,0 -5.04778,0.57436 -5.1958,0.1658 -0.22798,-0.90594 -0.79048,-3.96125 0.5773,-6.58728 0.64245,-1.14277 -0.0208,-2.25002 -0.44704,-1.0806 -0.48258,1.1931 -3.89908,6.49549 -6.10765,7.3659 -1.803,0.74014 -1.59871,1.15759 -0.43816,1.45068 0.92072,0.1806 1.87698,1.28194 1.69935,1.26712 -0.18059,4.39942 -0.61283,9.8291 0.75495,12.13243 0.87041,1.45364 3.25663,2.96056 4.33723,2.01022 z m 18.73449,1.95102 c -0.67502,1.3293 -1.76154,2.54314 -3.74513,3.44906 1.20496,1.051 2.77998,2.40695 3.81619,3.08788 1.19311,-1.32634 2.28851,-2.55498 3.66222,-3.85467 -1.36186,-0.26645 -2.93688,-0.94737 -3.73328,-2.68227 z m -8.58565,-4.85534 c 1.73192,-0.14211 4.52078,0.89705 7.6205,0.64244 3.68296,-0.26348 6.57247,-5.97147 4.98265,-10.41232 -1.48325,-4.21585 -6.18168,-3.47571 -9.34949,-4.48231 -2.90728,-0.79342 -4.11223,-2.62306 -0.9385,-4.70731 3.73032,-2.4099 8.36065,1.45364 8.80474,2.2678 0.68388,1.22864 1.25528,1.20791 1.25528,-0.39079 0.0976,-3.49051 -0.22205,-1.51581 -0.5714,-4.80205 -0.1155,-1.17535 -0.97106,-1.276 -1.051,-0.14802 -0.077,1.1487 -1.47436,0.79638 -2.52536,0.79638 -1.06876,-0.0207 -4.18329,-0.49737 -6.87149,0.99475 -1.71121,0.99477 -5.62212,4.0619 -3.4313,7.73598 1.27898,2.14642 8.7929,3.89019 10.66102,5.12475 1.87996,1.22567 2.30332,4.38165 0.50626,5.82936 -2.23523,1.77338 -8.31033,0.28126 -9.24883,-0.79639 -1.2316,-1.36186 -1.69936,-2.48392 -1.9599,-4.06191 -0.25756,-1.61647 -1.61646,-1.47732 -1.61646,0 0,1.47141 0.34639,6.52214 0.61579,7.70638 0.24277,1.23455 1.47437,0.826 1.58984,-0.1095 0.13913,-0.86747 0.71941,-1.1191 1.52765,-1.1872 z m -7.87512,15.74728 c -1.42995,1.07172 1.68457,2.56977 1.40627,2.48688 0.1125,4.41125 -0.52698,8.94389 0.97402,11.18503 0.95035,1.39147 3.91091,2.41287 4.4231,1.08061 0.49738,-1.3441 2.74149,-4.08262 3.24479,-4.54744 0.93257,-0.82303 0.1095,-1.57798 -0.67501,-0.76678 -1.62535,1.72008 -2.53129,0.92666 -3.7244,-0.21317 -0.57732,-0.65427 -0.79639,-6.82411 -0.37895,-7.00766 0,0 2.97833,-0.43225 3.69182,-0.43225 0.55363,0 0.50923,-1.71416 -0.074,-1.71416 -0.8941,0 -3.54972,0.0236 -3.70367,-0.39376 -0.33159,-0.85264 0.52993,-5.01225 0.68092,-6.8774 0.12138,-1.31747 -0.58619,-1.7349 -0.94145,-0.50627 -0.38191,1.202 -3.23887,6.48069 -4.92344,7.70637 z"
     id="path2819"
     style="fill:#ffffff;fill-opacity:1;fill-rule:nonzero;stroke:none" /></svg>